<svg width="410px" height="43px" version="1.1" xmlns="http://www.w3.org/2000/svg" xmlns:xlink="http://www.w3.org/1999/xlink">
        <g id="Flutter Codelabs" transform="translate(-230 -11)">
            <circle id="Oval" fill="#004DFF" fill-rule="nonzero" cx="446" cy="40" r="13"></circle>
            <path fill="#fff" d="M254.25,17.45 L254.25,18.55 L233.75,18.55 L233.75,32.3 L242,32.3 L242,33.6 L233.75,33.6 L233.75,53.1 L232.55,53.1 L232.55,17.45 L254.25,17.45 Z M263.5,52.9 C262.233327,52.766666 261.058339,52.36667 259.975,51.7 C258.891661,51.03333 258.083336,50.0833395 257.55,48.85 C257.483333,48.7499995 257.408334,48.5500015 257.325,48.25 C257.241666,47.9499985 257.2,47.733334 257.2,47.6 L257.2,11.85 L258.45,11.85 L258.45,47.25 C258.45,47.4833345 258.516666,47.7749983 258.65,48.125 C258.783334,48.4750017 258.916666,48.7666655 259.05,49 C259.350002,49.533336 259.741664,49.9749982 260.225,50.325 C260.708336,50.6750017 261.23333,50.949999 261.8,51.15 C262.36667,51.350001 262.941664,51.4916662 263.525,51.575 C264.108336,51.6583337 264.683331,51.7166665 265.25,51.75 L265.25,53 L264.9,53 C264.766666,53 264.516668,52.9833335 264.15,52.95 C263.783331,52.9166665 263.566667,52.9 263.5,52.9 Z M280.4,53.45 C279.033326,53.249999 277.733339,52.8666695 276.5,52.3 C275.266661,51.7333305 274.141672,51.0250042 273.125,50.175 C272.108328,49.3249957 271.225004,48.333339 270.475,47.2 C269.724996,46.066661 269.166669,44.8166735 268.8,43.45 C268.8,43.383333 268.758334,43.1583353 268.675,42.775 C268.591666,42.3916648 268.516667,42.1166675 268.45,41.95 C268.45,41.9166665 268.441667,41.866667 268.425,41.8 C268.408333,41.733333 268.4,41.666667 268.4,41.6 C268.366667,41.4999995 268.35,41.4000005 268.35,41.3 L268.35,26.6 L269.6,26.6 L269.6,40.8 C269.6,41.3666695 269.716665,42.016663 269.95,42.75 C270.183335,43.483337 270.416666,44.1333305 270.65,44.7 C271.416671,46.366675 272.49166,47.7916608 273.875,48.975 C275.25834,50.1583392 276.783325,51.0249972 278.45,51.575 C280.116675,52.1250028 281.849991,52.3250008 283.65,52.175 C285.450009,52.0249993 287.149992,51.450005 288.75,50.45 C289.483337,49.983331 290.20833,49.4083368 290.925,48.725 C291.64167,48.0416632 292.291664,47.2833375 292.875,46.45 C293.458336,45.6166625 293.933332,44.7500045 294.3,43.85 C294.666669,42.9499955 294.85,42.0500045 294.85,41.15 L295.05,26.35 L296.2,26.35 L296.2,53 L294.95,53 L294.95,45.75 C294.149996,47.08334 293.233339,48.2749947 292.2,49.325 C291.166662,50.3750053 290.041673,51.2416633 288.825,51.925 C287.608327,52.6083367 286.291674,53.0916652 284.875,53.375 C283.458326,53.6583348 281.966675,53.6833345 280.4,53.45 Z M300.1,27.1 L300.1,25.8 L304.35,25.8 L304.35,11.5 L305.7,11.5 L305.7,25.8 L309.85,25.8 L309.85,27.1 L305.7,27.1 L305.7,53 L304.35,53 L304.35,27.1 L300.1,27.1 Z M311.9,27.1 L311.9,25.8 L316.15,25.8 L316.15,11.5 L317.5,11.5 L317.5,25.8 L321.65,25.8 L321.65,27.1 L317.5,27.1 L317.5,53 L316.15,53 L316.15,27.1 L311.9,27.1 Z M336.75,52.9 C335.049991,52.5999985 333.516674,52.0416708 332.15,51.225 C330.783326,50.4083293 329.533339,49.400006 328.4,48.2 C327.133327,46.733326 326.241669,45.1166755 325.725,43.35 C325.208331,41.5833245 324.983333,39.7500095 325.05,37.85 C325.116667,36.649994 325.383331,35.450006 325.85,34.25 C326.316669,33.049994 326.88333,31.9666715 327.55,31 C328.916674,29.133324 330.499991,27.733338 332.3,26.8 C334.100009,25.866662 335.958324,25.333334 337.875,25.2 C339.791676,25.066666 341.666657,25.3166635 343.5,25.95 C345.333343,26.5833365 346.966659,27.533327 348.4,28.8 C349.83334,30.066673 350.966662,31.6249907 351.8,33.475 C352.633337,35.3250092 353,37.3999885 352.9,39.7 L339.75,39.7 L339.75,38.3 L351.65,38.3 L351.65,38.1 C351.08333,33.5999775 348.866686,30.2000115 345,27.9 C343.833327,27.1999965 342.575007,26.750001 341.225,26.55 C339.874993,26.349999 338.53334,26.3333325 337.2,26.5 C335.699993,26.6666675 334.28334,27.1249962 332.95,27.875 C331.61666,28.6250038 330.466671,29.5499945 329.5,30.65 C328.099993,32.2166745 327.166669,33.9416573 326.7,35.825 C326.233331,37.7083427 326.174998,39.5583242 326.525,41.375 C326.875002,43.1916758 327.624994,44.8916588 328.775,46.475 C329.925006,48.0583412 331.399991,49.349995 333.2,50.35 C334.066671,50.816669 334.999995,51.149999 336,51.35 C337.000005,51.550001 337.983328,51.716666 338.95,51.85 L338.95,53 L337.825,53 C337.508332,53 337.150002,52.966667 336.75,52.9 Z M358.4,26.75 L358.4,34.4 L358.55,34.4 C359.150003,33.2999945 359.891662,32.2666715 360.775,31.3 C361.658338,30.3333285 362.641661,29.483337 363.725,28.75 C364.808339,28.016663 365.96666,27.4583353 367.2,27.075 C368.433339,26.6916648 369.71666,26.533333 371.05,26.6 L371.05,27.9 C369.583326,27.9333335 368.18334,28.1916643 366.85,28.675 C365.51666,29.1583357 364.308339,29.8249957 363.225,30.675 C362.141661,31.5250043 361.208337,32.5416608 360.425,33.725 C359.641663,34.9083392 359.083335,36.2166595 358.75,37.65 C358.75,37.716667 358.716667,37.9083318 358.65,38.225 C358.583333,38.5416683 358.55,38.766666 358.55,38.9 C358.55,39.0666675 358.525,39.316665 358.475,39.65 C358.425,39.983335 358.4,40.183333 358.4,40.25 L358.4,53 L357.15,53 L357.15,26.75 L358.4,26.75 Z M409.35,53.1 C407.249989,52.899999 405.300009,52.2916717 403.5,51.275 C401.699991,50.2583282 400.100007,48.9666745 398.7,47.4 C397.93333,46.5666625 397.275003,45.650005 396.725,44.65 C396.174997,43.649995 395.700002,42.616672 395.3,41.55 C394.566663,39.54999 394.216666,37.5250102 394.25,35.475 C394.283334,33.4249897 394.616663,31.466676 395.25,29.6 C395.883336,27.733324 396.791661,26.000008 397.975,24.4 C399.158339,22.799992 400.549992,21.4583387 402.15,20.375 C403.750008,19.2916613 405.52499,18.516669 407.475,18.05 C409.42501,17.583331 411.499989,17.516665 413.7,17.85 C416.300013,18.250002 418.64999,19.2666585 420.75,20.9 C422.85001,22.5333415 424.516661,24.4999885 425.75,26.8 C425.816667,26.9000005 425.933333,27.1333315 426.1,27.5 C426.266667,27.8666685 426.383333,28.1333325 426.45,28.3 C426.45,28.366667 426.483333,28.466666 426.55,28.6 C426.616667,28.733334 426.65,28.833333 426.65,28.9 C426.483332,28.966667 426.300001,29.066666 426.1,29.2 C425.899999,29.333334 425.716667,29.366667 425.55,29.3 C425.016664,28.033327 424.408337,26.8750053 423.725,25.825 C423.041663,24.7749948 422.200005,23.7666715 421.2,22.8 C419.333324,21.066658 417.175012,19.9083362 414.725,19.325 C412.274988,18.7416638 409.816679,18.749997 407.35,19.35 C405.34999,19.8500025 403.508342,20.76666 401.825,22.1 C400.141658,23.43334 398.800005,24.999991 397.8,26.8 C396.766661,28.666676 396.091668,30.59999 395.775,32.6 C395.458332,34.60001 395.474998,36.5499905 395.825,38.45 C396.175002,40.3500095 396.816662,42.1416582 397.75,43.825 C398.683338,45.5083417 399.866659,46.9666605 401.3,48.2 C402.73334,49.4333395 404.383324,50.3916633 406.25,51.075 C408.116676,51.7583367 410.149989,52.033334 412.35,51.9 C413.850008,51.833333 415.299993,51.500003 416.7,50.9 C418.100007,50.299997 419.391661,49.5083383 420.575,48.525 C421.758339,47.5416618 422.783329,46.416673 423.65,45.15 C424.516671,43.883327 425.183331,42.550007 425.65,41.15 L426.75,41.55 L426.75,41.65 C426.483332,42.450004 426.158335,43.2249963 425.775,43.975 C425.391665,44.7250037 424.966669,45.4499965 424.5,46.15 C423.633329,47.3833395 422.633339,48.466662 421.5,49.4 C420.366661,50.333338 419.141673,51.0916638 417.825,51.675 C416.508327,52.2583362 415.13334,52.6749988 413.7,52.925 C412.26666,53.1750013 410.816674,53.233334 409.35,53.1 Z M442.55,53.35 C441.449995,53.149999 440.375005,52.7916693 439.325,52.275 C438.274995,51.7583308 437.308338,51.1166705 436.425,50.35 C435.541662,49.5833295 434.758337,48.7250048 434.075,47.775 C433.391663,46.8249953 432.850002,45.816672 432.45,44.75 C431.849997,43.1166585 431.541667,41.4916748 431.525,39.875 C431.508333,38.2583252 431.741664,36.7333405 432.225,35.3 C432.708336,33.8666595 433.408329,32.5416728 434.325,31.325 C435.241671,30.1083273 436.333327,29.0750042 437.6,28.225 C438.866673,27.3749958 440.266659,26.7250023 441.8,26.275 C443.333341,25.8249977 444.966658,25.6499995 446.7,25.75 C447.966673,25.816667 449.166661,26.083331 450.3,26.55 C451.433339,27.016669 452.516661,27.58333 453.55,28.25 C454.650005,29.0166705 455.591663,29.899995 456.375,30.9 C457.158337,31.900005 457.83333,32.999994 458.4,34.2 C458.900002,35.3000055 459.208333,36.4416607 459.325,37.625 C459.441667,38.8083393 459.466667,39.999994 459.4,41.2 C459.4,41.86667 459.308334,42.5083303 459.125,43.125 C458.941666,43.7416698 458.733334,44.3333305 458.5,44.9 C457.899997,46.500008 457.041672,47.899994 455.925,49.1 C454.808328,50.300006 453.53334,51.266663 452.1,52 C450.666659,52.733337 449.125008,53.2249988 447.475,53.475 C445.824992,53.7250013 444.183341,53.683335 442.55,53.35 Z M443.5,52.2 C444.900007,52.466668 446.324993,52.4583348 447.775,52.175 C449.225007,51.8916653 450.549994,51.41667 451.75,50.75 C453.316674,49.883329 454.591662,48.8083398 455.575,47.525 C456.558338,46.2416602 457.258331,44.866674 457.675,43.4 C458.091669,41.933326 458.241667,40.433341 458.125,38.9 C458.008333,37.366659 457.633337,35.900007 457,34.5 C456.366663,33.099993 455.483339,31.8250058 454.35,30.675 C453.216661,29.5249943 451.850008,28.6000035 450.25,27.9 C449.283329,27.499998 448.225006,27.2250007 447.075,27.075 C445.924994,26.9249992 444.800005,26.9333325 443.7,27.1 C441.399988,27.4666685 439.408342,28.3416597 437.725,29.725 C436.041658,31.1083402 434.775004,32.7499905 433.925,34.65 C433.074996,36.5500095 432.716666,38.5916558 432.85,40.775 C432.983334,42.9583442 433.733326,45.016657 435.1,46.95 C436.066671,48.3833405 437.283326,49.5499955 438.75,50.45 C440.216674,51.3500045 441.799992,51.933332 443.5,52.2 Z M474.8,53.35 C473.099991,53.0499985 471.566673,52.4916707 470.2,51.675 C468.833326,50.8583292 467.583339,49.850006 466.45,48.65 C465.749996,47.8833295 465.166669,47.033338 464.7,46.1 C464.233331,45.166662 463.850001,44.2166715 463.55,43.25 C463.049997,41.583325 462.891666,39.9250082 463.075,38.275 C463.258334,36.6249918 463.716663,35.0583407 464.45,33.575 C465.183337,32.0916592 466.141661,30.7583392 467.325,29.575 C468.508339,28.3916607 469.849992,27.4500035 471.35,26.75 C472.450005,26.216664 473.591661,25.8750007 474.775,25.725 C475.958339,25.5749992 477.149994,25.533333 478.35,25.6 C480.183342,25.666667 481.908325,26.1833285 483.525,27.15 C485.141675,28.1166715 486.549994,29.233327 487.75,30.5 C487.816667,30.566667 487.891666,30.666666 487.975,30.8 C488.058334,30.933334 488.133333,31.033333 488.2,31.1 C488.233333,31.1333335 488.308333,31.2333325 488.425,31.4 C488.541667,31.5666675 488.666666,31.749999 488.8,31.95 C488.933334,32.150001 489.049999,32.3333325 489.15,32.5 C489.25,32.6666675 489.316666,32.7666665 489.35,32.8 C489.383333,32.8333335 489.416667,32.85 489.45,32.85 C489.483333,32.8833335 489.533333,32.9 489.6,32.9 L489.6,11.15 L490.85,11.15 C490.95,25.0500695 490.95,38.99993 490.85,53 L489.6,53 L489.6,46.1 C489.566666,46.1 489.516667,46.133333 489.45,46.2 C489.416667,46.2333335 489.383333,46.25 489.35,46.25 C489.316666,46.2833335 489.25,46.3833325 489.15,46.55 C489.049999,46.7166675 488.933334,46.899999 488.8,47.1 C488.666666,47.300001 488.541667,47.4833325 488.425,47.65 C488.308333,47.8166675 488.233333,47.9166665 488.2,47.95 C487.499996,48.9833385 486.633338,49.8833295 485.6,50.65 C484.566661,51.4166705 483.458339,52.033331 482.275,52.5 C481.091661,52.966669 479.85834,53.2749993 478.575,53.425 C477.29166,53.5750008 476.033339,53.550001 474.8,53.35 Z M475.15,52.05 C476.516673,52.2833345 477.874993,52.2750012 479.225,52.025 C480.575007,51.7749987 481.849994,51.3250032 483.05,50.675 C484.250006,50.0249967 485.324995,49.200005 486.275,48.2 C487.225005,47.199995 487.98333,46.0833395 488.55,44.85 C488.716667,44.449998 488.916665,44.0083357 489.15,43.525 C489.383334,43.0416642 489.5,42.566669 489.5,42.1 L489.5,36.95 C489.5,36.483331 489.383334,36.0083358 489.15,35.525 C488.916665,35.0416642 488.716667,34.600002 488.55,34.2 C488.049997,33.1666615 487.425004,32.2083377 486.675,31.325 C485.924996,30.4416623 485.083338,29.6750033 484.15,29.025 C483.216662,28.3749967 482.208339,27.8666685 481.125,27.5 C480.041661,27.1333315 478.933339,26.916667 477.8,26.85 C475.79999,26.7499995 473.925009,27.0749962 472.175,27.825 C470.424991,28.5750038 468.941673,29.6083268 467.725,30.925 C466.508327,32.2416732 465.600003,33.799991 465,35.6 C464.399997,37.400009 464.233332,39.29999 464.5,41.3 C464.6,42.2666715 464.841665,43.2249952 465.225,44.175 C465.608335,45.1250047 466.08333,45.999996 466.65,46.8 C467.683338,48.2333405 468.924993,49.3999955 470.375,50.3 C471.825007,51.2000045 473.416658,51.783332 475.15,52.05 Z M507.95,52.9 C506.249991,52.5999985 504.716673,52.0416708 503.35,51.225 C501.983326,50.4083293 500.733339,49.400006 499.6,48.2 C498.333327,46.733326 497.441669,45.1166755 496.925,43.35 C496.408331,41.5833245 496.183333,39.7500095 496.25,37.85 C496.316667,36.649994 496.583331,35.450006 497.05,34.25 C497.516669,33.049994 498.08333,31.9666715 498.75,31 C500.116673,29.133324 501.699991,27.733338 503.5,26.8 C505.300009,25.866662 507.158324,25.333334 509.075,25.2 C510.991676,25.066666 512.866657,25.3166635 514.7,25.95 C516.533343,26.5833365 518.166659,27.533327 519.6,28.8 C521.03334,30.066673 522.166663,31.6249907 523,33.475 C523.833337,35.3250092 524.2,37.3999885 524.1,39.7 L510.95,39.7 L510.95,38.3 L522.85,38.3 L522.85,38.1 C522.28333,33.5999775 520.066686,30.2000115 516.2,27.9 C515.033328,27.1999965 513.775007,26.750001 512.425,26.55 C511.074993,26.349999 509.73334,26.3333325 508.4,26.5 C506.899992,26.6666675 505.48334,27.1249962 504.15,27.875 C502.81666,28.6250038 501.666671,29.5499945 500.7,30.65 C499.299993,32.2166745 498.366669,33.9416573 497.9,35.825 C497.433331,37.7083427 497.374998,39.5583242 497.725,41.375 C498.075002,43.1916758 498.824994,44.8916588 499.975,46.475 C501.125006,48.0583412 502.599991,49.349995 504.4,50.35 C505.266671,50.816669 506.199995,51.149999 507.2,51.35 C508.200005,51.550001 509.183328,51.716666 510.15,51.85 L510.15,53 L509.025,53 C508.708332,53 508.350002,52.966667 507.95,52.9 Z M534.55,52.9 C533.283327,52.766666 532.108339,52.36667 531.025,51.7 C529.941661,51.03333 529.133336,50.0833395 528.6,48.85 C528.533333,48.7499995 528.458334,48.5500015 528.375,48.25 C528.291666,47.9499985 528.25,47.733334 528.25,47.6 L528.25,11.85 L529.5,11.85 L529.5,47.25 C529.5,47.4833345 529.566666,47.7749983 529.7,48.125 C529.833334,48.4750017 529.966666,48.7666655 530.1,49 C530.400001,49.533336 530.791664,49.9749982 531.275,50.325 C531.758336,50.6750017 532.28333,50.949999 532.85,51.15 C533.416669,51.350001 533.991664,51.4916662 534.575,51.575 C535.158336,51.6583337 535.73333,51.7166665 536.3,51.75 L536.3,53 L535.95,53 C535.816666,53 535.566668,52.9833335 535.2,52.95 C534.833331,52.9166665 534.616667,52.9 534.55,52.9 Z M551.1,53.45 C549.299991,53.2166655 547.558342,52.6166715 545.875,51.65 C544.191658,50.6833285 542.833338,49.4500075 541.8,47.95 C540.56666,46.149991 539.766668,44.3000095 539.4,42.4 C539.033332,40.4999905 539.016665,38.6583422 539.35,36.875 C539.683335,35.0916578 540.333328,33.433341 541.3,31.9 C542.266672,30.366659 543.474993,29.0750052 544.925,28.025 C546.375007,26.9749948 548.041657,26.2416688 549.925,25.825 C551.808343,25.4083313 553.833322,25.433331 556,25.9 C558.366678,26.433336 560.324992,27.4083263 561.875,28.825 C563.425008,30.2416738 564.799994,31.94999 566,33.95 L566,25.9 L567.15,25.9 L567.15,53 L566,53 L566,45.2 C564.433325,48.066681 562.391679,50.2583257 559.875,51.775 C557.358321,53.2916742 554.43335,53.850002 551.1,53.45 Z M550.75,52.05 C551.916673,52.2833345 553.14166,52.3416673 554.425,52.225 C555.70834,52.1083328 556.883328,51.783336 557.95,51.25 C559.550008,50.4833295 560.908328,49.5166725 562.025,48.35 C563.141672,47.1833275 563.999997,45.900007 564.6,44.5 C565.200003,43.099993 565.541666,41.6500075 565.625,40.15 C565.708334,38.6499925 565.525002,37.1833405 565.075,35.75 C564.624998,34.3166595 563.900005,32.966673 562.9,31.7 C561.899995,30.433327 560.633341,29.3500045 559.1,28.45 C557.899994,27.7499965 556.575007,27.2750013 555.125,27.025 C553.674993,26.7749988 552.250007,26.783332 550.85,27.05 C549.049991,27.4166685 547.366674,28.099995 545.8,29.1 C544.233325,30.100005 543.016671,31.399992 542.15,33 C541.349996,34.5666745 540.791668,36.1749917 540.475,37.825 C540.158332,39.4750082 540.249997,41.166658 540.75,42.9 C541.450003,45.2666785 542.691658,47.2666585 544.475,48.9 C546.258342,50.5333415 548.349988,51.583331 550.75,52.05 Z M584.9,53.45 C582.466655,53.049998 580.400009,52.1916733 578.7,50.875 C576.999991,49.5583267 575.550006,47.8500105 574.35,45.75 L574.35,53 L572.95,53 L572.95,11.25 L574.35,11.25 L574.35,33.35 C574.983336,32.283328 575.691663,31.2750048 576.475,30.325 C577.258337,29.3749952 578.183328,28.5500035 579.25,27.85 C580.68334,26.9499955 582.299991,26.2916687 584.1,25.875 C585.900009,25.4583313 587.649991,25.4333315 589.35,25.8 C591.583344,26.2333355 593.508325,27.0583273 595.125,28.275 C596.741675,29.4916727 598.024995,30.9249917 598.975,32.575 C599.925005,34.2250083 600.524999,35.9999905 600.775,37.9 C601.025001,39.8000095 600.908336,41.6583242 600.425,43.475 C599.941664,45.2916757 599.066673,46.9749922 597.8,48.525 C596.533327,50.0750077 594.866677,51.3333285 592.8,52.3 C591.599994,52.8666695 590.30834,53.2583322 588.925,53.475 C587.54166,53.6916678 586.200006,53.6833345 584.9,53.45 Z M584.55,52.05 C584.616667,52.05 584.749999,52.0666665 584.95,52.1 C585.150001,52.1333335 585.283333,52.15 585.35,52.15 L588.55,52.15 C589.616672,52.1166665 590.683328,51.866669 591.75,51.4 C592.816672,50.933331 593.808329,50.3250038 594.725,49.575 C595.641671,48.8249962 596.45833,47.9750047 597.175,47.025 C597.89167,46.0749953 598.416665,45.1166715 598.75,44.15 C598.916667,43.616664 599.091666,43.0666695 599.275,42.5 C599.458334,41.9333305 599.55,41.3666695 599.55,40.8 C599.650001,38.199987 599.208338,35.933343 598.225,34 C597.241662,32.066657 595.958341,30.5166725 594.375,29.35 C592.791659,28.1833275 591.016676,27.4250017 589.05,27.075 C587.083324,26.7249982 585.158343,26.816664 583.275,27.35 C581.391657,27.883336 579.675008,28.883326 578.125,30.35 C576.574992,31.816674 575.416671,33.783321 574.65,36.25 C574.349998,37.1500045 574.191667,38.1166615 574.175,39.15 C574.158333,40.1833385 574.258332,41.2083283 574.475,42.225 C574.691668,43.2416718 575.024998,44.216662 575.475,45.15 C575.925002,46.083338 576.466663,46.8999965 577.1,47.6 C578.133339,48.7666725 579.241661,49.7083298 580.425,50.425 C581.608339,51.1416703 582.983325,51.6833315 584.55,52.05 Z M612.55,53.45 C611.683329,53.3499995 610.758338,53.1083352 609.775,52.725 C608.791662,52.3416647 607.883337,51.8416698 607.05,51.225 C606.216662,50.6083303 605.541669,49.8750043 605.025,49.025 C604.508331,48.1749958 604.3,47.2333385 604.4,46.2 C604.533334,46.2 604.733332,46.1916667 605,46.175 C605.266668,46.1583332 605.483332,46.216666 605.65,46.35 C605.75,47.616673 606.208329,48.6666625 607.025,49.5 C607.841671,50.3333375 608.824994,50.9749977 609.975,51.425 C611.125006,51.8750023 612.34166,52.1416663 613.625,52.225 C614.90834,52.3083338 616.033328,52.216668 617,51.95 C618.166672,51.6499985 619.299994,51.1500035 620.4,50.45 C621.500005,49.7499965 622.249998,48.800006 622.65,47.6 C622.983335,46.4999945 622.916669,45.450005 622.45,44.45 C621.983331,43.449995 621.283338,42.61667 620.35,41.95 C619.749997,41.5166645 619.133336,41.1833345 618.5,40.95 C617.866663,40.7166655 617.225003,40.5416673 616.575,40.425 C615.924997,40.3083327 615.250003,40.2250002 614.55,40.175 C613.849996,40.1249998 613.150003,40.066667 612.45,40 C611.516662,39.933333 610.608338,39.7083352 609.725,39.325 C608.841662,38.9416648 608.01667,38.483336 607.25,37.95 C606.58333,37.416664 605.975003,36.7750037 605.425,36.025 C604.874997,35.2749963 604.566667,34.466671 604.5,33.6 C604.399999,32.599995 604.516665,31.6833375 604.85,30.85 C605.183335,30.0166625 605.649997,29.2750032 606.25,28.625 C606.850003,27.9749968 607.558329,27.4250022 608.375,26.975 C609.191671,26.5249977 610.049996,26.166668 610.95,25.9 C611.883338,25.6666655 612.958327,25.5416667 614.175,25.525 C615.391673,25.5083332 616.591661,25.6499985 617.775,25.95 C618.958339,26.2500015 620.049995,26.7083303 621.05,27.325 C622.050005,27.9416698 622.799997,28.7333285 623.3,29.7 C623.566668,30.100002 623.808332,30.566664 624.025,31.1 C624.241668,31.633336 624.316667,32.166664 624.25,32.7 L623,32.7 C622.866666,31.7333285 622.533336,30.8583372 622,30.075 C621.466664,29.2916628 620.766671,28.666669 619.9,28.2 C619.23333,27.8333315 618.525004,27.516668 617.775,27.25 C617.024996,26.983332 616.26667,26.85 615.5,26.85 C613.833325,26.783333 612.258341,26.949998 610.775,27.35 C609.291659,27.750002 607.966672,28.61666 606.8,29.95 C606.399998,30.416669 606.116667,30.9416637 605.95,31.525 C605.783332,32.1083363 605.733333,32.6833305 605.8,33.25 C605.900001,34.116671 606.224997,34.9249962 606.775,35.675 C607.325003,36.4250038 607.983329,36.999998 608.75,37.4 C609.283336,37.666668 609.83333,37.9083323 610.4,38.125 C610.966669,38.3416677 611.53333,38.516666 612.1,38.65 C612.166667,38.65 612.274999,38.6666665 612.425,38.7 C612.575001,38.7333335 612.683333,38.75 612.75,38.75 C613.850005,38.883334 614.916662,38.9916662 615.95,39.075 C616.983338,39.1583337 618.033328,39.399998 619.1,39.8 C620.400006,40.333336 621.474996,41.0499955 622.325,41.95 C623.175004,42.8500045 623.724999,43.8249948 623.975,44.875 C624.225001,45.9250052 624.158335,47.0083277 623.775,48.125 C623.391665,49.2416723 622.633339,50.2833285 621.5,51.25 C620.333327,52.2833385 618.925008,52.966665 617.275,53.3 C615.624992,53.633335 614.050007,53.6833345 612.55,53.45 Z"></path>
        </g>
</svg>