<svg width="453px" height="623px" viewBox="0 0 453 623" version="1.1" xmlns="http://www.w3.org/2000/svg" xmlns:xlink="http://www.w3.org/1999/xlink">
    <defs>
        <rect id="path-1" x="3" y="0" width="427" height="864" rx="64"></rect>
        <filter x="-6.3%" y="-1.7%" width="109.8%" height="104.9%" filterUnits="objectBoundingBox" id="filter-2">
            <feOffset dx="-6" dy="6" in="SourceAlpha" result="shadowOffsetOuter1"></feOffset>
            <feGaussianBlur stdDeviation="6" in="shadowOffsetOuter1" result="shadowBlurOuter1"></feGaussianBlur>
            <feColorMatrix values="0 0 0 0 0.121568627   0 0 0 0 0.117647059   0 0 0 0 0.301960784  0 0 0 0.24 0" type="matrix" in="shadowBlurOuter1"></feColorMatrix>
        </filter>
        <linearGradient x1="50%" y1="100%" x2="50%" y2="0%" id="linearGradient-3">
            <stop stop-color="#000000" stop-opacity="0" offset="0%"></stop>
            <stop stop-color="#000000" stop-opacity="0.3" offset="100%"></stop>
        </linearGradient>
        <rect id="path-4" x="3" y="0" width="427" height="864" rx="64"></rect>
        <filter x="-3.3%" y="-1.2%" width="106.6%" height="103.2%" filterUnits="objectBoundingBox" id="filter-5">
            <feOffset dx="0" dy="4" in="SourceAlpha" result="shadowOffsetOuter1"></feOffset>
            <feGaussianBlur stdDeviation="4" in="shadowOffsetOuter1" result="shadowBlurOuter1"></feGaussianBlur>
            <feComposite in="shadowBlurOuter1" in2="SourceAlpha" operator="out" result="shadowBlurOuter1"></feComposite>
            <feColorMatrix values="0 0 0 0 0.121568627   0 0 0 0 0.117647059   0 0 0 0 0.301960784  0 0 0 0.24 0" type="matrix" in="shadowBlurOuter1"></feColorMatrix>
        </filter>
        <linearGradient x1="50%" y1="50%" x2="50%" y2="98.8490513%" id="linearGradient-6">
            <stop stop-color="#222222" offset="0%"></stop>
            <stop stop-color="#111111" offset="100%"></stop>
        </linearGradient>
        <linearGradient x1="50%" y1="0%" x2="50%" y2="98.4713807%" id="linearGradient-7">
            <stop stop-color="#000000" stop-opacity="0" offset="0%"></stop>
            <stop stop-color="#000000" stop-opacity="0.2" offset="100%"></stop>
        </linearGradient>
        <linearGradient x1="50%" y1="0%" x2="50%" y2="100%" id="linearGradient-8">
            <stop stop-color="#111111" stop-opacity="0.6" offset="0%"></stop>
            <stop stop-color="#000000" offset="100%"></stop>
        </linearGradient>
        <rect id="path-9" x="0" y="0" width="411" height="848" rx="60"></rect>
        <filter x="-1.7%" y="-0.8%" width="103.4%" height="101.7%" filterUnits="objectBoundingBox" id="filter-11">
            <feMorphology radius="1" operator="dilate" in="SourceAlpha" result="shadowSpreadOuter1"></feMorphology>
            <feOffset dx="0" dy="0" in="shadowSpreadOuter1" result="shadowOffsetOuter1"></feOffset>
            <feGaussianBlur stdDeviation="2" in="shadowOffsetOuter1" result="shadowBlurOuter1"></feGaussianBlur>
            <feComposite in="shadowBlurOuter1" in2="SourceAlpha" operator="out" result="shadowBlurOuter1"></feComposite>
            <feColorMatrix values="0 0 0 0 0   0 0 0 0 0   0 0 0 0 0  0 0 0 0.2 0" type="matrix" in="shadowBlurOuter1"></feColorMatrix>
        </filter>
        <filter x="-2.7%" y="-1.3%" width="105.4%" height="102.6%" filterUnits="objectBoundingBox" id="filter-12">
            <feGaussianBlur stdDeviation="6" in="SourceAlpha" result="shadowBlurInner1"></feGaussianBlur>
            <feOffset dx="0" dy="0" in="shadowBlurInner1" result="shadowOffsetInner1"></feOffset>
            <feComposite in="shadowOffsetInner1" in2="SourceAlpha" operator="arithmetic" k2="-1" k3="1" result="shadowInnerInner1"></feComposite>
            <feColorMatrix values="0 0 0 0 1   0 0 0 0 1   0 0 0 0 1  0 0 0 0.25 0" type="matrix" in="shadowInnerInner1"></feColorMatrix>
        </filter>
        <path d="M297.743536,0.00646367867 L337,0 C357.98682,-7.10542736e-15 375,17.0131795 375,38 L375,774 C375,794.98682 357.98682,812 337,812 L38,812 C17.0131795,812 0,794.98682 0,774 L0,38 C0,17.0131795 17.0131795,7.10542736e-15 38,0 L77.25,0 C79.8137596,0.135669138 295.18624,0.135669138 297.743536,0.00646367867 Z" id="path-13"></path>
    </defs>
    <g id="Page-1" stroke="none" stroke-width="1" fill="none" fill-rule="evenodd">
        <g id="Artboard" transform="translate(-879.000000, -195.000000)">
            <g id="iPhone_X_Clay_Black" transform="translate(0.000000, 68.000000)">
                <g transform="translate(894.000000, 133.000000)">
                    <g id="Outer_Frame">
                        <g id="Shadow" fill="black" fill-opacity="1">
                            <use filter="url(#filter-2)" xlink:href="#path-1"></use>
                        </g>
                        <g>
                            <use fill="black" fill-opacity="1" filter="url(#filter-5)" xlink:href="#path-4"></use>
                            <use fill="" fill-rule="evenodd" xlink:href="#path-4"></use>
                            <rect stroke-opacity="0.1" stroke="#000000" stroke-width="1" stroke-linejoin="square" fill="url(#linearGradient-3)" fill-rule="evenodd" x="3.5" y="0.5" width="426" height="863" rx="64"></rect>
                        </g>
                    </g>
                    <g id="Inner_Frame"  transform="translate(11.000000, 8.000000)">
                        <mask id="mask-10" fill="white">
                            <use xlink:href="#path-9"></use>
                        </mask>
                        <g>
                            <use fill="black" fill-opacity="1" filter="url(#filter-11)" xlink:href="#path-9"></use>
                            <use fill="url(#linearGradient-6)" fill-rule="evenodd" xlink:href="#path-9"></use>
                            <use fill="url(#linearGradient-7)" fill-rule="evenodd" xlink:href="#path-9"></use>
                            <use fill="black" fill-opacity="1" filter="url(#filter-12)" xlink:href="#path-9"></use>
                            <rect stroke="url(#linearGradient-8)" stroke-width="1" x="-0.5" y="-0.5" width="412" height="849" rx="60"></rect>
                        </g>
                    </g>
                    <g id="Screen" transform="translate(29.000000, 26.000000)">
                        <path stroke-opacity="0.1" stroke="#000000" d="M297.718306,-0.492899366 L297.743454,-0.493536315 L337,-0.5 C358.262963,-0.5 375.5,16.7370371 375.5,38 L375.5,774 C375.5,795.262963 358.262963,812.5 337,812.5 L38,812.5 C16.7370371,812.5 -0.5,795.262963 -0.5,774 L-0.5,38 C-0.5,16.7370371 16.7370371,-0.5 38,-0.5 L77.2764221,-0.499301387 C79.79259,-0.366150702 295.146427,-0.362957111 297.718306,-0.492899366 Z"></path>
                        <path d="M297.743536,0.00646367867 L337,0 C357.98682,-7.10542736e-15 375,17.0131795 375,38 L375,774 C375,794.98682 357.98682,812 337,812 L38,812 C17.0131795,812 0,794.98682 0,774 L0,38 C0,17.0131795 17.0131795,7.10542736e-15 38,0 L77.25,0 C79.8137596,0.135669138 295.18624,0.135669138 297.743536,0.00646367867 Z" fill="#000"></path>
                    </g>
                </g>
            </g>
        </g>
    </g>
</svg>